HIERARCHY
ROOT hip
{
	OFFSET 0.000000 0.000000 0.000000 
	CHANNELS 6 Xposition Yposition Zposition Xrotation Zrotation Yrotation
	JOINT abdomen
	{
		OFFSET 0.000000 3.402643 0.000000 
		CHANNELS 3 Xrotation Zrotation Yrotation
		JOINT chest
		{
			OFFSET 0.000000 8.438565 -0.680529 
			CHANNELS 3 Xrotation Zrotation Yrotation
			JOINT neck
			{
				OFFSET 0.000000 10.207942 -0.272212 
				CHANNELS 3 Xrotation Zrotation Yrotation
				JOINT head
				{
					OFFSET 0.000000 3.130431 0.000000 
					CHANNELS 3 Xrotation Zrotation Yrotation
					End Site
					{
						OFFSET 0.000000 3.130435 0.000000 
					}
				}
			}
			JOINT lCollar
			{
				OFFSET 3.470700 6.669187 -0.816635 
				CHANNELS 3 Yrotation Zrotation Xrotation
				JOINT lShldr
				{
					OFFSET 3.198488 0.000000 0.000000 
					CHANNELS 3 Zrotation Yrotation Xrotation
					JOINT lForeArm
					{
						OFFSET 10.139888 0.000000 0.000000 
						CHANNELS 3 Yrotation Zrotation Xrotation
						JOINT lHand
						{
							OFFSET 8.370511 0.000000 0.000000 
							CHANNELS 3 Zrotation Yrotation Xrotation
							End Site
							{
								OFFSET 4.083176 0.000000 0.000000 
							}
						}
					}
				}
			}
			JOINT rCollar
			{
				OFFSET -3.470700 6.669187 -0.816635 
				CHANNELS 3 Yrotation Zrotation Xrotation
				JOINT rShldr
				{
					OFFSET -3.198488 0.000000 0.000000 
					CHANNELS 3 Zrotation Yrotation Xrotation
					JOINT rForeArm
					{
						OFFSET -10.139888 0.000000 0.000000 
						CHANNELS 3 Yrotation Zrotation Xrotation
						JOINT rHand
						{
							OFFSET -8.370511 0.000000 0.000000 
							CHANNELS 3 Zrotation Yrotation Xrotation
							End Site
							{
								OFFSET -4.083176 0.000000 0.000000 
							}
						}
					}
				}
			}
		}
	}
	JOINT lThigh
	{
		OFFSET 5.308129 -1.633274 1.361059 
		CHANNELS 3 Xrotation Zrotation Yrotation
		JOINT lShin
		{
			OFFSET -2.041588 -20.007561 0.000000 
			CHANNELS 3 Xrotation Zrotation Yrotation
			JOINT lFoot
			{
				OFFSET 0.000000 -19.190928 -1.224953 
				CHANNELS 3 Xrotation Yrotation Zrotation
				End Site
				{
					OFFSET 0.000000 -2.449906 4.627600 
				}
			}
		}
	}
	JOINT rThigh
	{
		OFFSET -5.308129 -1.633274 1.361059 
		CHANNELS 3 Xrotation Zrotation Yrotation
		JOINT rShin
		{
			OFFSET 2.041588 -20.007561 0.000000 
			CHANNELS 3 Xrotation Zrotation Yrotation
			JOINT rFoot
			{
				OFFSET 0.000000 -19.190928 -1.224953 
				CHANNELS 3 Xrotation Yrotation Zrotation
				End Site
				{
					OFFSET 0.000000 -2.449906 4.627600 
				}
			}
		}
	}
}
MOTION
Frames: 9
Frame Time: 0.033333
1.729017 47.272026 -148.764481 20.791735 6.211663 144.941498 43.468288 -7.209063 0.861349 -20.839844 0.000000 0.000000 -1.432107 0.237951 9.910722 -2.520846 -1.255050 0.218350 -4.754607 -0.109226 -0.002657 -70.201515 11.466442 0.113397 -16.369555 2.902440 12.904305 -8.727972 -12.827805 -15.755645 4.754607 0.109226 -0.002676 55.564957 -30.343477 -35.026802 112.290710 -14.487193 -14.219588 21.393381 -18.114471 -34.080650 6.569407 7.459541 10.751966 51.813660 -11.706995 -1.312570 -32.529369 -2.868458 -11.905086 -8.758793 -11.424179 -2.161320 58.229527 -4.931579 -3.718478 -24.847536 -18.613678 20.287945 
1.311902 47.279640 -148.688843 20.276529 6.590322 143.864258 43.428646 -7.413016 1.060750 -20.839844 0.000000 0.000000 -1.329912 0.583511 10.233010 -2.520846 -1.255050 0.218350 -4.754607 -0.109226 -0.002657 -70.383980 11.851511 0.177485 -15.444763 2.324598 13.968517 -7.286946 -13.853483 -14.728168 4.754607 0.109226 -0.002676 55.218956 -29.825756 -34.133781 111.720345 -13.530246 -13.943208 19.496359 -17.245537 -32.398170 6.000566 7.387754 11.050001 51.917156 -11.971926 -0.710435 -32.574467 -2.675963 -11.178787 -9.704947 -11.803814 -1.977564 58.124008 -4.511694 -3.017415 -24.371109 -17.719397 20.152842 
0.942471 47.259331 -148.613693 19.928551 6.963568 143.112946 43.360546 -7.264448 1.223104 -20.839844 0.000000 0.000000 -1.132342 0.595191 10.397841 -2.520846 -1.255050 0.218350 -4.754607 -0.109226 -0.002657 -70.150452 12.254681 -0.093436 -14.740394 1.289746 13.988499 -7.305062 -13.695472 -14.622991 4.754607 0.109226 -0.002676 55.104549 -29.239927 -33.922871 111.668205 -13.495239 -13.737368 20.138258 -17.940491 -32.283672 5.463229 7.192241 11.037231 52.117943 -11.951324 -0.309822 -32.850719 -2.254119 -10.775226 -10.417181 -12.389007 -2.428980 58.150723 -4.013604 -2.353224 -24.096041 -16.439129 20.111141 
0.609219 47.263893 -148.562408 19.569386 7.301785 142.479568 43.178955 -7.361683 1.533359 -20.839844 0.000000 0.000000 -1.016482 1.077772 10.301096 -2.520846 -1.255050 0.218350 -4.754607 -0.109226 -0.002657 -69.837090 13.065515 -0.423018 -15.081805 0.906153 13.296255 -8.317684 -13.274100 -15.597516 4.754607 0.109226 -0.002676 55.244007 -28.754414 -33.935856 111.699974 -13.685465 -13.970586 21.107794 -18.515472 -33.041656 5.130822 7.259481 11.302639 52.159332 -12.137490 -0.067598 -33.190212 -2.187009 -10.559361 -11.003617 -12.565427 -2.656149 58.056889 -3.868615 -1.976077 -23.986214 -15.671949 20.372314 
0.306393 47.273537 -148.538559 19.393681 7.761951 141.901855 43.063881 -7.103200 1.914289 -20.839844 0.000000 0.000000 -0.833434 1.388779 10.122092 -2.520846 -1.255050 0.218350 -4.754607 -0.109226 -0.002657 -69.801521 13.556824 -0.421572 -14.820339 0.773968 12.694970 -9.097900 -13.329756 -16.884087 4.754607 0.109226 -0.002676 54.691971 -29.381903 -33.679691 111.675201 -13.089786 -14.612730 20.559317 -17.555025 -33.378159 5.365300 7.708448 12.175068 52.085957 -12.555884 0.010871 -33.470470 -2.780851 -10.303010 -11.218207 -12.301731 -2.391450 57.873356 -4.032889 -1.812112 -23.717955 -15.668693 20.786520 
0.027630 47.264412 -148.514694 19.424442 8.185166 141.605927 42.998623 -6.738795 2.124090 -20.839844 0.000000 0.000000 -0.522210 1.315298 10.028507 -2.520846 -1.255050 0.218350 -4.754607 -0.109226 -0.002657 -69.607468 13.738736 -0.465643 -13.928273 0.118450 12.633452 -8.967576 -13.589635 -17.214111 4.754607 0.109226 -0.002676 54.357662 -30.044924 -33.586357 111.729645 -12.718234 -14.691090 20.236395 -16.935656 -33.142021 5.891647 8.333609 13.281650 52.043007 -13.143579 -0.179645 -33.945015 -3.836348 -10.256001 -11.237828 -12.233562 -2.265449 57.827427 -4.140396 -1.820777 -23.637184 -15.887301 21.316418 
-0.231250 47.261360 -148.483719 19.401463 8.315591 141.783432 43.050957 -6.776912 1.872132 -20.839844 0.000000 0.000000 -0.612766 1.529094 9.840224 -2.520846 -1.255050 0.218350 -4.754607 -0.109226 -0.002657 -69.470810 13.918153 -0.641619 -13.597686 0.085104 12.782203 -8.649100 -13.179308 -16.909184 4.754607 0.109226 -0.002676 54.657925 -29.946032 -33.743164 111.711113 -12.962481 -14.478323 20.350107 -17.313210 -33.032578 5.896780 8.700123 13.949258 52.224281 -13.396076 -0.495406 -33.813728 -4.865665 -9.990467 -11.361761 -12.454570 -2.448628 57.757370 -4.111129 -1.980095 -23.593164 -16.161732 22.015221 
-0.462497 47.280647 -148.446152 19.356939 8.410209 142.190674 43.106129 -6.666263 1.509627 -20.839844 0.000000 0.000000 -0.711816 1.504381 9.741816 -2.520846 -1.255050 0.218350 -4.754607 -0.109226 -0.002657 -69.314430 13.932281 -0.776887 -13.244165 0.121597 12.803685 -8.097304 -12.574884 -16.788734 4.754607 0.109226 -0.002676 54.862823 -30.054216 -33.941574 111.673508 -13.191073 -14.460718 20.371017 -17.606239 -33.188759 5.984200 9.168273 14.730749 52.222424 -13.678777 -0.889172 -33.576988 -6.217002 -9.277911 -11.404355 -12.321885 -2.452569 57.503910 -4.326073 -2.375627 -23.300333 -16.824800 22.855612 
-0.681507 47.272026 -148.418228 19.531338 8.530509 142.622925 43.035786 -6.510343 1.245530 -20.839844 0.000000 0.000000 -0.664576 1.285305 9.627705 -2.520846 -1.255050 0.218350 -4.754607 -0.109226 -0.002657 -68.908096 13.878027 -0.935670 -12.641863 0.022606 12.555964 -8.152991 -12.260170 -17.011065 4.754607 0.109226 -0.002676 55.213734 -30.306078 -34.234356 111.558968 -13.513251 -13.901326 20.503830 -17.915344 -32.550289 6.375515 9.687256 15.585973 52.273064 -14.226212 -1.320115 -33.327053 -7.690080 -8.511004 -11.255638 -12.651238 -2.691713 57.492592 -4.277109 -2.252876 -23.242266 -16.704634 23.218578 
